<svg width="25" height="24" viewBox="0 0 25 24" fill="none" xmlns="http://www.w3.org/2000/svg">
<mask id="mask0_340_5376" style="mask-type:alpha" maskUnits="userSpaceOnUse" x="0" y="0" width="25" height="24">
<rect x="1" y="0.5" width="23" height="23" fill="#D9D9D9" stroke="#E1E6E1"/>
</mask>
<g mask="url(#mask0_340_5376)">
<path d="M13.775 19.7C13.5417 19.7833 13.3 19.8542 13.05 19.9125C12.8 19.9708 12.5333 20 12.25 20C11.0667 20 10.0583 19.5875 9.225 18.7625C8.39167 17.9375 7.98333 16.9333 8 15.75L13.775 19.7ZM13.775 19.7C14.0417 19.6 14.3 19.6042 14.55 19.7125C14.8 19.8208 14.975 20.0083 15.075 20.275C15.175 20.5417 15.1708 20.8 15.0625 21.05C14.9542 21.3 14.7667 21.475 14.5 21.575L13.775 19.7ZM13.0125 6.5L13.0125 6.4997C12.9958 5.79665 12.7487 5.20192 12.2714 4.71624C11.794 4.23043 11.2032 3.9875 10.5 3.9875C9.79677 3.9875 9.2019 4.23042 8.71616 4.71616C8.23042 5.2019 7.9875 5.79677 7.9875 6.5V15.7499C7.97081 16.9366 8.38045 17.944 9.21621 18.7714C10.0519 19.5987 11.0634 20.0125 12.25 20.0125C12.5342 20.0125 12.8018 19.9832 13.0528 19.9247C13.3033 19.8662 13.5454 19.7953 13.7792 19.7118L13.7794 19.7117C14.0432 19.6128 14.2981 19.617 14.545 19.724C14.7918 19.8309 14.9644 20.0157 15.0633 20.2794C15.1622 20.5432 15.158 20.7981 15.051 21.045C14.9441 21.2918 14.7593 21.4644 14.4956 21.5633L14.4956 21.5633C14.1462 21.6964 13.7844 21.8004 13.41 21.8752C13.0359 21.9501 12.6492 21.9875 12.25 21.9875C10.52 21.9875 9.04814 21.3805 7.83384 20.1662C6.61954 18.9519 6.0125 17.48 6.0125 15.75V6.5C6.0125 5.25328 6.44871 4.19397 7.32134 3.32134C8.19397 2.44871 9.25328 2.0125 10.5 2.0125C11.7467 2.0125 12.806 2.44871 13.6787 3.32134C14.5513 4.19397 14.9875 5.25328 14.9875 6.5V13C14.9875 13.2802 14.8929 13.5145 14.7037 13.7037C14.5145 13.8929 14.2802 13.9875 14 13.9875C13.7198 13.9875 13.4855 13.8929 13.2963 13.7037C13.1071 13.5145 13.0125 13.2802 13.0125 13L13.0125 6.5ZM16.5125 18V17.9875H16.5H14.5C14.2198 17.9875 13.9855 17.8929 13.7963 17.7037C13.6071 17.5145 13.5125 17.2802 13.5125 17C13.5125 16.7198 13.6071 16.4855 13.7963 16.2963C13.9855 16.1071 14.2198 16.0125 14.5 16.0125H16.5H16.5125V16V14C16.5125 13.7198 16.6071 13.4855 16.7963 13.2963C16.9855 13.1071 17.2198 13.0125 17.5 13.0125C17.7802 13.0125 18.0145 13.1071 18.2037 13.2963C18.3929 13.4855 18.4875 13.7198 18.4875 14V16V16.0125H18.5H20.5C20.7802 16.0125 21.0145 16.1071 21.2037 16.2963C21.3929 16.4855 21.4875 16.7198 21.4875 17C21.4875 17.2802 21.3929 17.5145 21.2037 17.7037C21.0145 17.8929 20.7802 17.9875 20.5 17.9875H18.5H18.4875V18V20C18.4875 20.2802 18.3929 20.5145 18.2037 20.7037C18.0145 20.8929 17.7802 20.9875 17.5 20.9875C17.2198 20.9875 16.9855 20.8929 16.7963 20.7037C16.6071 20.5145 16.5125 20.2802 16.5125 20V18ZM10.5 16.9875C10.2198 16.9875 9.98555 16.8929 9.79634 16.7037C9.60713 16.5145 9.5125 16.2802 9.5125 16V7C9.5125 6.71981 9.60713 6.48555 9.79634 6.29634C9.98555 6.10713 10.2198 6.0125 10.5 6.0125C10.7802 6.0125 11.0145 6.10713 11.2037 6.29634C11.3929 6.48555 11.4875 6.71981 11.4875 7V16C11.4875 16.2802 11.3929 16.5145 11.2037 16.7037C11.0145 16.8929 10.7802 16.9875 10.5 16.9875ZM17.5 10.9875C17.2198 10.9875 16.9855 10.8929 16.7963 10.7037C16.6071 10.5145 16.5125 10.2802 16.5125 10V7C16.5125 6.71981 16.6071 6.48555 16.7963 6.29634C16.9855 6.10713 17.2198 6.0125 17.5 6.0125C17.7802 6.0125 18.0145 6.10713 18.2037 6.29634C18.3929 6.48555 18.4875 6.71981 18.4875 7V10C18.4875 10.2802 18.3929 10.5145 18.2037 10.7037C18.0145 10.8929 17.7802 10.9875 17.5 10.9875Z" fill="#4B564D" stroke="#E1E6E1" stroke-width="0.025"/>
</g>
</svg>
